<svg id="visual" viewBox="0 0 450 900" width="450" height="900" xmlns="http://www.w3.org/2000/svg" xmlns:xlink="http://www.w3.org/1999/xlink" version="1.1"><path d="M0 313L5.3 299.2C10.7 285.3 21.3 257.7 32 255C42.7 252.3 53.3 274.7 64 272.3C74.7 270 85.3 243 96.2 226.7C107 210.3 118 204.7 128.8 204.3C139.7 204 150.3 209 161 216.2C171.7 223.3 182.3 232.7 193 245.2C203.7 257.7 214.3 273.3 225 269.3C235.7 265.3 246.3 241.7 257 228.8C267.7 216 278.3 214 289 212.2C299.7 210.3 310.3 208.7 321.2 224.8C332 241 343 275 353.8 286.2C364.7 297.3 375.3 285.7 386 273C396.7 260.3 407.3 246.7 418 251C428.7 255.3 439.3 277.7 444.7 288.8L450 300L450 0L444.7 0C439.3 0 428.7 0 418 0C407.3 0 396.7 0 386 0C375.3 0 364.7 0 353.8 0C343 0 332 0 321.2 0C310.3 0 299.7 0 289 0C278.3 0 267.7 0 257 0C246.3 0 235.7 0 225 0C214.3 0 203.7 0 193 0C182.3 0 171.7 0 161 0C150.3 0 139.7 0 128.8 0C118 0 107 0 96.2 0C85.3 0 74.7 0 64 0C53.3 0 42.7 0 32 0C21.3 0 10.7 0 5.3 0L0 0Z" fill="#f2914a"></path><path d="M0 149L5.3 163.8C10.7 178.7 21.3 208.3 32 215.7C42.7 223 53.3 208 64 193.2C74.7 178.3 85.3 163.7 96.2 166.2C107 168.7 118 188.3 128.8 203.3C139.7 218.3 150.3 228.7 161 226.3C171.7 224 182.3 209 193 201.3C203.7 193.7 214.3 193.3 225 201.3C235.7 209.3 246.3 225.7 257 233.8C267.7 242 278.3 242 289 225.8C299.7 209.7 310.3 177.3 321.2 176.7C332 176 343 207 353.8 214C364.7 221 375.3 204 386 204.7C396.7 205.3 407.3 223.7 418 228.5C428.7 233.3 439.3 224.7 444.7 220.3L450 216L450 0L444.7 0C439.3 0 428.7 0 418 0C407.3 0 396.7 0 386 0C375.3 0 364.7 0 353.8 0C343 0 332 0 321.2 0C310.3 0 299.7 0 289 0C278.3 0 267.7 0 257 0C246.3 0 235.7 0 225 0C214.3 0 203.7 0 193 0C182.3 0 171.7 0 161 0C150.3 0 139.7 0 128.8 0C118 0 107 0 96.2 0C85.3 0 74.7 0 64 0C53.3 0 42.7 0 32 0C21.3 0 10.7 0 5.3 0L0 0Z" fill="#bc4f62"></path><path d="M0 94L5.3 95C10.7 96 21.3 98 32 103.7C42.7 109.3 53.3 118.7 64 118.8C74.7 119 85.3 110 96.2 102.8C107 95.7 118 90.3 128.8 97.8C139.7 105.3 150.3 125.7 161 132.5C171.7 139.3 182.3 132.7 193 136.8C203.7 141 214.3 156 225 163.5C235.7 171 246.3 171 257 163.2C267.7 155.3 278.3 139.7 289 134C299.7 128.3 310.3 132.7 321.2 130.2C332 127.7 343 118.3 353.8 122.5C364.7 126.7 375.3 144.3 386 141.5C396.7 138.7 407.3 115.3 418 109.7C428.7 104 439.3 116 444.7 122L450 128L450 0L444.7 0C439.3 0 428.7 0 418 0C407.3 0 396.7 0 386 0C375.3 0 364.7 0 353.8 0C343 0 332 0 321.2 0C310.3 0 299.7 0 289 0C278.3 0 267.7 0 257 0C246.3 0 235.7 0 225 0C214.3 0 203.7 0 193 0C182.3 0 171.7 0 161 0C150.3 0 139.7 0 128.8 0C118 0 107 0 96.2 0C85.3 0 74.7 0 64 0C53.3 0 42.7 0 32 0C21.3 0 10.7 0 5.3 0L0 0Z" fill="#5f2f5c"></path><path d="M0 59L5.3 65.3C10.7 71.7 21.3 84.3 32 82C42.7 79.7 53.3 62.3 64 54.3C74.7 46.3 85.3 47.7 96.2 58.5C107 69.3 118 89.7 128.8 94.2C139.7 98.7 150.3 87.3 161 84.3C171.7 81.3 182.3 86.7 193 86.3C203.7 86 214.3 80 225 75.2C235.7 70.3 246.3 66.7 257 70.5C267.7 74.3 278.3 85.7 289 80.2C299.7 74.7 310.3 52.3 321.2 46.2C332 40 343 50 353.8 52.2C364.7 54.3 375.3 48.7 386 50.7C396.7 52.7 407.3 62.3 418 64.3C428.7 66.3 439.3 60.7 444.7 57.8L450 55L450 0L444.7 0C439.3 0 428.7 0 418 0C407.3 0 396.7 0 386 0C375.3 0 364.7 0 353.8 0C343 0 332 0 321.2 0C310.3 0 299.7 0 289 0C278.3 0 267.7 0 257 0C246.3 0 235.7 0 225 0C214.3 0 203.7 0 193 0C182.3 0 171.7 0 161 0C150.3 0 139.7 0 128.8 0C118 0 107 0 96.2 0C85.3 0 74.7 0 64 0C53.3 0 42.7 0 32 0C21.3 0 10.7 0 5.3 0L0 0Z" fill="#06142e"></path></svg>