<svg id="visual" viewBox="0 0 450 900" width="450" height="900" xmlns="http://www.w3.org/2000/svg" xmlns:xlink="http://www.w3.org/1999/xlink" version="1.1"><path d="M0 608L5 616.2C10 624.3 20 640.7 30 636.8C40 633 50 609 60 600.8C70 592.7 80 600.3 90 615.2C100 630 110 652 120 654.3C130 656.7 140 639.3 150 626.8C160 614.3 170 606.7 180 617.5C190 628.3 200 657.7 210 656.8C220 656 230 625 240 608.8C250 592.7 260 591.3 270 594.2C280 597 290 604 300 611C310 618 320 625 330 623.3C340 621.7 350 611.3 360 608.3C370 605.3 380 609.7 390 624C400 638.3 410 662.7 420 670.5C430 678.3 440 669.7 445 665.3L450 661L450 901L445 901C440 901 430 901 420 901C410 901 400 901 390 901C380 901 370 901 360 901C350 901 340 901 330 901C320 901 310 901 300 901C290 901 280 901 270 901C260 901 250 901 240 901C230 901 220 901 210 901C200 901 190 901 180 901C170 901 160 901 150 901C140 901 130 901 120 901C110 901 100 901 90 901C80 901 70 901 60 901C50 901 40 901 30 901C20 901 10 901 5 901L0 901Z" fill="#e7ecda"></path><path d="M0 659L5 659.3C10 659.7 20 660.3 30 673C40 685.7 50 710.3 60 717.7C70 725 80 715 90 700.3C100 685.7 110 666.3 120 665.8C130 665.3 140 683.7 150 689.7C160 695.7 170 689.3 180 692.8C190 696.3 200 709.7 210 720.5C220 731.3 230 739.7 240 729.5C250 719.3 260 690.7 270 688.2C280 685.7 290 709.3 300 717.2C310 725 320 717 330 715C340 713 350 717 360 713.7C370 710.3 380 699.7 390 703.3C400 707 410 725 420 723.2C430 721.3 440 699.7 445 688.8L450 678L450 901L445 901C440 901 430 901 420 901C410 901 400 901 390 901C380 901 370 901 360 901C350 901 340 901 330 901C320 901 310 901 300 901C290 901 280 901 270 901C260 901 250 901 240 901C230 901 220 901 210 901C200 901 190 901 180 901C170 901 160 901 150 901C140 901 130 901 120 901C110 901 100 901 90 901C80 901 70 901 60 901C50 901 40 901 30 901C20 901 10 901 5 901L0 901Z" fill="#83a299"></path><path d="M0 778L5 772.8C10 767.7 20 757.3 30 748C40 738.7 50 730.3 60 739.3C70 748.3 80 774.7 90 785.3C100 796 110 791 120 784.3C130 777.7 140 769.3 150 758.2C160 747 170 733 180 735.8C190 738.7 200 758.3 210 761.8C220 765.3 230 752.7 240 742.7C250 732.7 260 725.3 270 735.7C280 746 290 774 300 775.2C310 776.3 320 750.7 330 745.2C340 739.7 350 754.3 360 755.8C370 757.3 380 745.7 390 739.8C400 734 410 734 420 731.7C430 729.3 440 724.7 445 722.3L450 720L450 901L445 901C440 901 430 901 420 901C410 901 400 901 390 901C380 901 370 901 360 901C350 901 340 901 330 901C320 901 310 901 300 901C290 901 280 901 270 901C260 901 250 901 240 901C230 901 220 901 210 901C200 901 190 901 180 901C170 901 160 901 150 901C140 901 130 901 120 901C110 901 100 901 90 901C80 901 70 901 60 901C50 901 40 901 30 901C20 901 10 901 5 901L0 901Z" fill="#305966"></path><path d="M0 858L5 858.2C10 858.3 20 858.7 30 850.5C40 842.3 50 825.7 60 816.7C70 807.7 80 806.3 90 807.8C100 809.3 110 813.7 120 813.5C130 813.3 140 808.7 150 804.5C160 800.3 170 796.7 180 793.8C190 791 200 789 210 791.2C220 793.3 230 799.7 240 807.3C250 815 260 824 270 829.2C280 834.3 290 835.7 300 838.3C310 841 320 845 330 844.7C340 844.3 350 839.7 360 837.3C370 835 380 835 390 831.8C400 828.7 410 822.3 420 823.2C430 824 440 832 445 836L450 840L450 901L445 901C440 901 430 901 420 901C410 901 400 901 390 901C380 901 370 901 360 901C350 901 340 901 330 901C320 901 310 901 300 901C290 901 280 901 270 901C260 901 250 901 240 901C230 901 220 901 210 901C200 901 190 901 180 901C170 901 160 901 150 901C140 901 130 901 120 901C110 901 100 901 90 901C80 901 70 901 60 901C50 901 40 901 30 901C20 901 10 901 5 901L0 901Z" fill="#06152e"></path></svg>