<svg id="visual" viewBox="0 0 450 900" width="450" height="900" xmlns="http://www.w3.org/2000/svg" xmlns:xlink="http://www.w3.org/1999/xlink" version="1.1"><path d="M0 322L5.3 322C10.7 322 21.3 322 32 318C42.7 314 53.3 306 64 291.5C74.7 277 85.3 256 96.2 254.3C107 252.7 118 270.3 128.8 262.2C139.7 254 150.3 220 161 207.2C171.7 194.3 182.3 202.7 193 203.8C203.7 205 214.3 199 225 190.7C235.7 182.3 246.3 171.7 257 167.3C267.7 163 278.3 165 289 173.8C299.7 182.7 310.3 198.3 321.2 206.3C332 214.3 343 214.7 353.8 224.7C364.7 234.7 375.3 254.3 386 259.8C396.7 265.3 407.3 256.7 418 244.3C428.7 232 439.3 216 444.7 208L450 200L450 0L444.7 0C439.3 0 428.7 0 418 0C407.3 0 396.7 0 386 0C375.3 0 364.7 0 353.8 0C343 0 332 0 321.2 0C310.3 0 299.7 0 289 0C278.3 0 267.7 0 257 0C246.3 0 235.7 0 225 0C214.3 0 203.7 0 193 0C182.3 0 171.7 0 161 0C150.3 0 139.7 0 128.8 0C118 0 107 0 96.2 0C85.3 0 74.7 0 64 0C53.3 0 42.7 0 32 0C21.3 0 10.7 0 5.3 0L0 0Z" fill="#e7ecdd"></path><path d="M0 230L5.3 213.7C10.7 197.3 21.3 164.7 32 157.3C42.7 150 53.3 168 64 167.7C74.7 167.3 85.3 148.7 96.2 137C107 125.3 118 120.7 128.8 127.7C139.7 134.7 150.3 153.3 161 166.8C171.7 180.3 182.3 188.7 193 178.7C203.7 168.7 214.3 140.3 225 132.8C235.7 125.3 246.3 138.7 257 153.5C267.7 168.3 278.3 184.7 289 179.5C299.7 174.3 310.3 147.7 321.2 140.2C332 132.7 343 144.3 353.8 158.3C364.7 172.3 375.3 188.7 386 186.5C396.7 184.3 407.3 163.7 418 147.2C428.7 130.7 439.3 118.3 444.7 112.2L450 106L450 0L444.7 0C439.3 0 428.7 0 418 0C407.3 0 396.7 0 386 0C375.3 0 364.7 0 353.8 0C343 0 332 0 321.2 0C310.3 0 299.7 0 289 0C278.3 0 267.7 0 257 0C246.3 0 235.7 0 225 0C214.3 0 203.7 0 193 0C182.3 0 171.7 0 161 0C150.3 0 139.7 0 128.8 0C118 0 107 0 96.2 0C85.3 0 74.7 0 64 0C53.3 0 42.7 0 32 0C21.3 0 10.7 0 5.3 0L0 0Z" fill="#e1c696"></path><path d="M0 91L5.3 100.7C10.7 110.3 21.3 129.7 32 139.2C42.7 148.7 53.3 148.3 64 129.8C74.7 111.3 85.3 74.7 96.2 72C107 69.3 118 100.7 128.8 111C139.7 121.3 150.3 110.7 161 95.8C171.7 81 182.3 62 193 50.7C203.7 39.3 214.3 35.7 225 45.5C235.7 55.3 246.3 78.7 257 93C267.7 107.3 278.3 112.7 289 100.8C299.7 89 310.3 60 321.2 54.3C332 48.7 343 66.3 353.8 66.5C364.7 66.7 375.3 49.3 386 42.2C396.7 35 407.3 38 418 46C428.7 54 439.3 67 444.7 73.5L450 80L450 0L444.7 0C439.3 0 428.7 0 418 0C407.3 0 396.7 0 386 0C375.3 0 364.7 0 353.8 0C343 0 332 0 321.2 0C310.3 0 299.7 0 289 0C278.3 0 267.7 0 257 0C246.3 0 235.7 0 225 0C214.3 0 203.7 0 193 0C182.3 0 171.7 0 161 0C150.3 0 139.7 0 128.8 0C118 0 107 0 96.2 0C85.3 0 74.7 0 64 0C53.3 0 42.7 0 32 0C21.3 0 10.7 0 5.3 0L0 0Z" fill="#f1916d"></path></svg>