<svg id="visual" viewBox="0 0 960 300" width="960" height="300" xmlns="http://www.w3.org/2000/svg" xmlns:xlink="http://www.w3.org/1999/xlink" version="1.1"><path d="M0 146L11.5 142.8C23 139.7 46 133.3 68.8 130C91.7 126.7 114.3 126.3 137.2 132.7C160 139 183 152 205.8 149.5C228.7 147 251.3 129 274.2 127.3C297 125.7 320 140.3 342.8 136.5C365.7 132.7 388.3 110.3 411.2 105.2C434 100 457 112 480 113.5C503 115 526 106 548.8 114.5C571.7 123 594.3 149 617.2 149.7C640 150.3 663 125.7 685.8 124.3C708.7 123 731.3 145 754.2 153.7C777 162.3 800 157.7 822.8 146.2C845.7 134.7 868.3 116.3 891.2 104.7C914 93 937 88 948.5 85.5L960 83L960 301L948.5 301C937 301 914 301 891.2 301C868.3 301 845.7 301 822.8 301C800 301 777 301 754.2 301C731.3 301 708.7 301 685.8 301C663 301 640 301 617.2 301C594.3 301 571.7 301 548.8 301C526 301 503 301 480 301C457 301 434 301 411.2 301C388.3 301 365.7 301 342.8 301C320 301 297 301 274.2 301C251.3 301 228.7 301 205.8 301C183 301 160 301 137.2 301C114.3 301 91.7 301 68.8 301C46 301 23 301 11.5 301L0 301Z" fill="#e7ecda"></path><path d="M0 163L11.5 161.8C23 160.7 46 158.3 68.8 166C91.7 173.7 114.3 191.3 137.2 187.3C160 183.3 183 157.7 205.8 147.5C228.7 137.3 251.3 142.7 274.2 153.7C297 164.7 320 181.3 342.8 187.2C365.7 193 388.3 188 411.2 180.7C434 173.3 457 163.7 480 162.3C503 161 526 168 548.8 167.2C571.7 166.3 594.3 157.7 617.2 163C640 168.3 663 187.7 685.8 194.3C708.7 201 731.3 195 754.2 184.5C777 174 800 159 822.8 150.5C845.7 142 868.3 140 891.2 144.7C914 149.3 937 160.7 948.5 166.3L960 172L960 301L948.5 301C937 301 914 301 891.2 301C868.3 301 845.7 301 822.8 301C800 301 777 301 754.2 301C731.3 301 708.7 301 685.8 301C663 301 640 301 617.2 301C594.3 301 571.7 301 548.8 301C526 301 503 301 480 301C457 301 434 301 411.2 301C388.3 301 365.7 301 342.8 301C320 301 297 301 274.2 301C251.3 301 228.7 301 205.8 301C183 301 160 301 137.2 301C114.3 301 91.7 301 68.8 301C46 301 23 301 11.5 301L0 301Z" fill="#82a299"></path><path d="M0 248L11.5 243.8C23 239.7 46 231.3 68.8 230.3C91.7 229.3 114.3 235.7 137.2 239.5C160 243.3 183 244.7 205.8 233.5C228.7 222.3 251.3 198.7 274.2 193.7C297 188.7 320 202.3 342.8 206C365.7 209.7 388.3 203.3 411.2 200C434 196.7 457 196.3 480 203C503 209.7 526 223.3 548.8 222.7C571.7 222 594.3 207 617.2 207C640 207 663 222 685.8 220.3C708.7 218.7 731.3 200.3 754.2 190.2C777 180 800 178 822.8 181.3C845.7 184.7 868.3 193.3 891.2 197C914 200.7 937 199.3 948.5 198.7L960 198L960 301L948.5 301C937 301 914 301 891.2 301C868.3 301 845.7 301 822.8 301C800 301 777 301 754.2 301C731.3 301 708.7 301 685.8 301C663 301 640 301 617.2 301C594.3 301 571.7 301 548.8 301C526 301 503 301 480 301C457 301 434 301 411.2 301C388.3 301 365.7 301 342.8 301C320 301 297 301 274.2 301C251.3 301 228.7 301 205.8 301C183 301 160 301 137.2 301C114.3 301 91.7 301 68.8 301C46 301 23 301 11.5 301L0 301Z" fill="#2e5967"></path><path d="M0 274L11.5 269.2C23 264.3 46 254.7 68.8 249.3C91.7 244 114.3 243 137.2 245.5C160 248 183 254 205.8 260C228.7 266 251.3 272 274.2 267C297 262 320 246 342.8 246.3C365.7 246.7 388.3 263.3 411.2 264.5C434 265.7 457 251.3 480 251.8C503 252.3 526 267.7 548.8 269.7C571.7 271.7 594.3 260.3 617.2 252.3C640 244.3 663 239.7 685.8 237.2C708.7 234.7 731.3 234.3 754.2 236.3C777 238.3 800 242.7 822.8 247C845.7 251.3 868.3 255.7 891.2 254.2C914 252.7 937 245.3 948.5 241.7L960 238L960 301L948.5 301C937 301 914 301 891.2 301C868.3 301 845.7 301 822.8 301C800 301 777 301 754.2 301C731.3 301 708.7 301 685.8 301C663 301 640 301 617.2 301C594.3 301 571.7 301 548.8 301C526 301 503 301 480 301C457 301 434 301 411.2 301C388.3 301 365.7 301 342.8 301C320 301 297 301 274.2 301C251.3 301 228.7 301 205.8 301C183 301 160 301 137.2 301C114.3 301 91.7 301 68.8 301C46 301 23 301 11.5 301L0 301Z" fill="#06142e"></path></svg>