<svg id="visual" viewBox="0 0 960 300" width="960" height="300" xmlns="http://www.w3.org/2000/svg" xmlns:xlink="http://www.w3.org/1999/xlink" version="1.1"><path d="M0 152L11.5 155.2C23 158.3 46 164.7 68.8 168C91.7 171.3 114.3 171.7 137.2 165.3C160 159 183 146 205.8 148.5C228.7 151 251.3 169 274.2 170.7C297 172.3 320 157.7 342.8 161.5C365.7 165.3 388.3 187.7 411.2 192.8C434 198 457 186 480 184.5C503 183 526 192 548.8 183.5C571.7 175 594.3 149 617.2 148.3C640 147.7 663 172.3 685.8 173.7C708.7 175 731.3 153 754.2 144.3C777 135.7 800 140.3 822.8 151.8C845.7 163.3 868.3 181.7 891.2 193.3C914 205 937 210 948.5 212.5L960 215L960 0L948.5 0C937 0 914 0 891.2 0C868.3 0 845.7 0 822.8 0C800 0 777 0 754.2 0C731.3 0 708.7 0 685.8 0C663 0 640 0 617.2 0C594.3 0 571.7 0 548.8 0C526 0 503 0 480 0C457 0 434 0 411.2 0C388.3 0 365.7 0 342.8 0C320 0 297 0 274.2 0C251.3 0 228.7 0 205.8 0C183 0 160 0 137.2 0C114.3 0 91.7 0 68.8 0C46 0 23 0 11.5 0L0 0Z" fill="#e7ecdd"></path><path d="M0 135L11.5 136.2C23 137.3 46 139.7 68.8 132C91.7 124.3 114.3 106.7 137.2 110.7C160 114.7 183 140.3 205.8 150.5C228.7 160.7 251.3 155.3 274.2 144.3C297 133.3 320 116.7 342.8 110.8C365.7 105 388.3 110 411.2 117.3C434 124.7 457 134.3 480 135.7C503 137 526 130 548.8 130.8C571.7 131.7 594.3 140.3 617.2 135C640 129.7 663 110.3 685.8 103.7C708.7 97 731.3 103 754.2 113.5C777 124 800 139 822.8 147.5C845.7 156 868.3 158 891.2 153.3C914 148.7 937 137.3 948.5 131.7L960 126L960 0L948.5 0C937 0 914 0 891.2 0C868.3 0 845.7 0 822.8 0C800 0 777 0 754.2 0C731.3 0 708.7 0 685.8 0C663 0 640 0 617.2 0C594.3 0 571.7 0 548.8 0C526 0 503 0 480 0C457 0 434 0 411.2 0C388.3 0 365.7 0 342.8 0C320 0 297 0 274.2 0C251.3 0 228.7 0 205.8 0C183 0 160 0 137.2 0C114.3 0 91.7 0 68.8 0C46 0 23 0 11.5 0L0 0Z" fill="#dfd4ad"></path><path d="M0 50L11.5 54.2C23 58.3 46 66.7 68.8 67.7C91.7 68.7 114.3 62.3 137.2 58.5C160 54.7 183 53.3 205.8 64.5C228.7 75.7 251.3 99.3 274.2 104.3C297 109.3 320 95.7 342.8 92C365.7 88.3 388.3 94.7 411.2 98C434 101.3 457 101.7 480 95C503 88.3 526 74.7 548.8 75.3C571.7 76 594.3 91 617.2 91C640 91 663 76 685.8 77.7C708.7 79.3 731.3 97.7 754.2 107.8C777 118 800 120 822.8 116.7C845.7 113.3 868.3 104.7 891.2 101C914 97.3 937 98.7 948.5 99.3L960 100L960 0L948.5 0C937 0 914 0 891.2 0C868.3 0 845.7 0 822.8 0C800 0 777 0 754.2 0C731.3 0 708.7 0 685.8 0C663 0 640 0 617.2 0C594.3 0 571.7 0 548.8 0C526 0 503 0 480 0C457 0 434 0 411.2 0C388.3 0 365.7 0 342.8 0C320 0 297 0 274.2 0C251.3 0 228.7 0 205.8 0C183 0 160 0 137.2 0C114.3 0 91.7 0 68.8 0C46 0 23 0 11.5 0L0 0Z" fill="#e6b683"></path><path d="M0 24L11.5 28.8C23 33.7 46 43.3 68.8 48.7C91.7 54 114.3 55 137.2 52.5C160 50 183 44 205.8 38C228.7 32 251.3 26 274.2 31C297 36 320 52 342.8 51.7C365.7 51.3 388.3 34.7 411.2 33.5C434 32.3 457 46.7 480 46.2C503 45.7 526 30.3 548.8 28.3C571.7 26.3 594.3 37.7 617.2 45.7C640 53.7 663 58.3 685.8 60.8C708.7 63.3 731.3 63.7 754.2 61.7C777 59.7 800 55.3 822.8 51C845.7 46.7 868.3 42.3 891.2 43.8C914 45.3 937 52.7 948.5 56.3L960 60L960 0L948.5 0C937 0 914 0 891.2 0C868.3 0 845.7 0 822.8 0C800 0 777 0 754.2 0C731.3 0 708.7 0 685.8 0C663 0 640 0 617.2 0C594.3 0 571.7 0 548.8 0C526 0 503 0 480 0C457 0 434 0 411.2 0C388.3 0 365.7 0 342.8 0C320 0 297 0 274.2 0C251.3 0 228.7 0 205.8 0C183 0 160 0 137.2 0C114.3 0 91.7 0 68.8 0C46 0 23 0 11.5 0L0 0Z" fill="#f1916d"></path></svg>