<svg id="visual" viewBox="0 0 960 300" width="960" height="300" xmlns="http://www.w3.org/2000/svg" xmlns:xlink="http://www.w3.org/1999/xlink" version="1.1"><path d="M0 131L10 141.2C20 151.3 40 171.7 60 182.2C80 192.7 100 193.3 120 191C140 188.7 160 183.3 180 184.7C200 186 220 194 240 189C260 184 280 166 300 156.8C320 147.7 340 147.3 360 148.5C380 149.7 400 152.3 420 149.7C440 147 460 139 480 144.2C500 149.3 520 167.7 540 174.7C560 181.7 580 177.3 600 181.5C620 185.7 640 198.3 660 195.8C680 193.3 700 175.7 720 175.5C740 175.3 760 192.7 780 196.3C800 200 820 190 840 184.3C860 178.7 880 177.3 900 174.8C920 172.3 940 168.7 950 166.8L960 165L960 0L950 0C940 0 920 0 900 0C880 0 860 0 840 0C820 0 800 0 780 0C760 0 740 0 720 0C700 0 680 0 660 0C640 0 620 0 600 0C580 0 560 0 540 0C520 0 500 0 480 0C460 0 440 0 420 0C400 0 380 0 360 0C340 0 320 0 300 0C280 0 260 0 240 0C220 0 200 0 180 0C160 0 140 0 120 0C100 0 80 0 60 0C40 0 20 0 10 0L0 0Z" fill="#f1914a"></path><path d="M0 141L10 142.8C20 144.7 40 148.3 60 142.3C80 136.3 100 120.7 120 118.7C140 116.7 160 128.3 180 132C200 135.7 220 131.3 240 127.5C260 123.7 280 120.3 300 122.8C320 125.3 340 133.7 360 131.3C380 129 400 116 420 121.8C440 127.7 460 152.3 480 158.2C500 164 520 151 540 142.3C560 133.7 580 129.3 600 135.7C620 142 640 159 660 166C680 173 700 170 720 162C740 154 760 141 780 141.7C800 142.3 820 156.7 840 160.3C860 164 880 157 900 156.7C920 156.3 940 162.7 950 165.8L960 169L960 0L950 0C940 0 920 0 900 0C880 0 860 0 840 0C820 0 800 0 780 0C760 0 740 0 720 0C700 0 680 0 660 0C640 0 620 0 600 0C580 0 560 0 540 0C520 0 500 0 480 0C460 0 440 0 420 0C400 0 380 0 360 0C340 0 320 0 300 0C280 0 260 0 240 0C220 0 200 0 180 0C160 0 140 0 120 0C100 0 80 0 60 0C40 0 20 0 10 0L0 0Z" fill="#cd5c5d"></path><path d="M0 132L10 130.7C20 129.3 40 126.7 60 118.7C80 110.7 100 97.3 120 88.8C140 80.3 160 76.7 180 82.7C200 88.7 220 104.3 240 110.7C260 117 280 114 300 108.2C320 102.3 340 93.7 360 89C380 84.3 400 83.7 420 84.7C440 85.7 460 88.3 480 88.3C500 88.3 520 85.7 540 91C560 96.3 580 109.7 600 114.2C620 118.7 640 114.3 660 107.2C680 100 700 90 720 93.7C740 97.3 760 114.7 780 123.3C800 132 820 132 840 133.7C860 135.3 880 138.7 900 136.2C920 133.7 940 125.3 950 121.2L960 117L960 0L950 0C940 0 920 0 900 0C880 0 860 0 840 0C820 0 800 0 780 0C760 0 740 0 720 0C700 0 680 0 660 0C640 0 620 0 600 0C580 0 560 0 540 0C520 0 500 0 480 0C460 0 440 0 420 0C400 0 380 0 360 0C340 0 320 0 300 0C280 0 260 0 240 0C220 0 200 0 180 0C160 0 140 0 120 0C100 0 80 0 60 0C40 0 20 0 10 0L0 0Z" fill="#8f3c63"></path><path d="M0 81L10 80.7C20 80.3 40 79.7 60 76.5C80 73.3 100 67.7 120 66.3C140 65 160 68 180 72.8C200 77.7 220 84.3 240 85.5C260 86.7 280 82.3 300 76C320 69.7 340 61.3 360 65.8C380 70.3 400 87.7 420 88.2C440 88.7 460 72.3 480 63.5C500 54.7 520 53.3 540 53.7C560 54 580 56 600 54.8C620 53.7 640 49.3 660 56.3C680 63.3 700 81.7 720 84C740 86.3 760 72.7 780 71.8C800 71 820 83 840 87.7C860 92.3 880 89.7 900 82C920 74.3 940 61.7 950 55.3L960 49L960 0L950 0C940 0 920 0 900 0C880 0 860 0 840 0C820 0 800 0 780 0C760 0 740 0 720 0C700 0 680 0 660 0C640 0 620 0 600 0C580 0 560 0 540 0C520 0 500 0 480 0C460 0 440 0 420 0C400 0 380 0 360 0C340 0 320 0 300 0C280 0 260 0 240 0C220 0 200 0 180 0C160 0 140 0 120 0C100 0 80 0 60 0C40 0 20 0 10 0L0 0Z" fill="#472953"></path><path d="M0 39L10 38.8C20 38.7 40 38.3 60 36C80 33.7 100 29.3 120 27.7C140 26 160 27 180 26.7C200 26.3 220 24.7 240 22.8C260 21 280 19 300 17.7C320 16.3 340 15.7 360 22C380 28.3 400 41.7 420 47.5C440 53.3 460 51.7 480 46.3C500 41 520 32 540 33.8C560 35.7 580 48.3 600 54.2C620 60 640 59 660 55.2C680 51.3 700 44.7 720 43.8C740 43 760 48 780 49.2C800 50.3 820 47.7 840 47C860 46.3 880 47.7 900 45.5C920 43.3 940 37.7 950 34.8L960 32L960 0L950 0C940 0 920 0 900 0C880 0 860 0 840 0C820 0 800 0 780 0C760 0 740 0 720 0C700 0 680 0 660 0C640 0 620 0 600 0C580 0 560 0 540 0C520 0 500 0 480 0C460 0 440 0 420 0C400 0 380 0 360 0C340 0 320 0 300 0C280 0 260 0 240 0C220 0 200 0 180 0C160 0 140 0 120 0C100 0 80 0 60 0C40 0 20 0 10 0L0 0Z" fill="#06142e"></path></svg>